<?xml version="1.0" encoding="utf-8"?>
<!-- Generator: Adobe Illustrator 22.1.0, SVG Export Plug-In . SVG Version: 6.00 Build 0)  -->
<svg version="1.1" id="Layer_1" xmlns="http://www.w3.org/2000/svg" xmlns:xlink="http://www.w3.org/1999/xlink" x="0px" y="0px"
	 viewBox="0 0 256 256" style="enable-background:new 0 0 256 256;" xml:space="preserve">
<style type="text/css">
	.st0{fill:#030203;}
	.st1{clip-path:url(#SVGID_2_);}
	.st2{fill:#FFFFFF;}
</style>
<g>
	<path d="M586,318.1c-69.5,0-125.9,56.4-125.9,125.9c0,69.5,56.4,125.9,125.9,125.9S711.9,513.5,711.9,444
		C711.9,374.5,655.5,318.1,586,318.1L586,318.1z M652.5,501.8l-10.1,10.1c-1.8,1.8-7.1,2.9-7.2,2.9c-31.9,0.3-62.6-12.2-85.2-34.8
		c-22.6-22.6-35.2-53.5-34.8-85.5c0,0,1.2-5.1,3-6.9l10.1-10.1c3.7-3.7,10.8-5.4,15.7-3.7l2.1,0.7c5,1.7,10.1,7.1,11.5,12.2
		l5.1,18.6c1.4,5.1-0.5,12.2-4.2,15.9l-6.7,6.7c6.6,24.5,25.8,43.7,50.3,50.3l6.7-6.7c3.7-3.7,10.9-5.5,15.9-4.2l18.6,5.1
		c5,1.4,10.5,6.5,12.2,11.5l0.7,2.2C657.8,491,656.2,498.1,652.5,501.8L652.5,501.8z M652.5,501.8"/>
</g>
<g>
	<path d="M-289.3,137.9h10v53.9h9.4v-53.9h10.1v-8.8h-29.5V137.9z M-289.3,137.9"/>
	<path d="M-209.6,144.5c-3.1,0-6,1.7-8.8,5.1v-20.5h-8.5v62.8h8.5v-4.5c2.8,3.5,5.7,5.2,8.8,5.2c3.4,0,5.6-1.8,6.8-5.3
		c0.6-2,0.9-5.1,0.9-9.4v-18.6c0-4.4-0.3-7.5-0.9-9.4C-204,146.3-206.2,144.5-209.6,144.5L-209.6,144.5z M-210.5,178.5
		c0,4.2-1.2,6.3-3.7,6.3c-1.4,0-2.8-0.7-4.2-2.1v-28.5c1.4-1.4,2.8-2.1,4.2-2.1c2.4,0,3.7,2.2,3.7,6.4V178.5z M-210.5,178.5"/>
	<path d="M-242.7,180.8c-1.9,2.7-3.7,4-5.4,4c-1.1,0-1.8-0.7-2-2c-0.1-0.3-0.1-1.3-0.1-3.3v-34.4h-8.5v37c0,3.3,0.3,5.5,0.8,7
		c0.9,2.4,2.7,3.5,5.5,3.5c3.1,0,6.3-1.9,9.7-5.7v5.1h8.5v-46.8h-8.5V180.8z M-242.7,180.8"/>
	<path d="M-235.4,101.9c2.8,0,4.1-2.2,4.1-6.6V75.5c0-4.4-1.3-6.6-4.1-6.6c-2.8,0-4.1,2.2-4.1,6.6v19.9
		C-239.5,99.7-238.1,101.9-235.4,101.9L-235.4,101.9z M-235.4,101.9"/>
	<path d="M-229.7,3c-69.4,0-125.7,56.3-125.7,125.7c0,69.4,56.3,125.7,125.7,125.7c69.4,0,125.7-56.3,125.7-125.7
		C-104,59.3-160.3,3-229.7,3L-229.7,3z M-215.7,61.8h8.5v34.8c0,2,0,3.1,0.1,3.3c0.2,1.3,0.9,2,2,2c1.7,0,3.5-1.3,5.4-4V61.8h8.6
		V109h-8.6v-5.2c-3.4,3.9-6.7,5.8-9.8,5.8c-2.8,0-4.7-1.1-5.5-3.5c-0.5-1.4-0.8-3.7-0.8-7V61.8z M-248,77.2c0-5,0.9-8.7,2.7-11.1
		c2.4-3.2,5.7-4.8,10-4.8c4.3,0,7.6,1.6,10,4.8c1.8,2.4,2.7,6.1,2.7,11.1v16.5c0,5-0.9,8.8-2.7,11.1c-2.4,3.2-5.7,4.8-10,4.8
		c-4.3,0-7.6-1.6-10-4.8c-1.8-2.4-2.7-6.1-2.7-11.1V77.2z M-270.9,45.6l6.7,24.9l6.5-24.9h9.6l-11.4,37.7V109h-9.5V83.4
		c-0.9-4.5-2.8-11.2-5.8-20.1c-2-5.9-4.1-11.8-6.1-17.7H-270.9z M-162,196c-1.7,7.5-7.8,13-15.2,13.8c-17.4,1.9-35,1.9-52.5,1.9
		c-17.5,0-35.1,0-52.5-1.9c-7.3-0.8-13.4-6.3-15.2-13.8c-2.4-10.6-2.4-22.2-2.4-33.1c0-10.9,0-22.5,2.5-33.1
		c1.7-7.5,7.8-13,15.1-13.8c17.4-1.9,35-1.9,52.5-1.9c17.5,0,35.1,0,52.5,1.9c7.3,0.8,13.4,6.3,15.2,13.8
		c2.4,10.6,2.4,22.2,2.4,33.1C-159.6,173.8-159.6,185.4-162,196L-162,196z M-162,196"/>
	<path d="M-182.6,144.5c-4.3,0-7.7,1.6-10.1,4.8c-1.8,2.4-2.6,6-2.6,11v16.4c0,5,0.9,8.6,2.7,11c2.4,3.2,5.8,4.8,10.3,4.8
		c4.4,0,7.9-1.7,10.2-5.1c1-1.5,1.7-3.2,2-5.1c0.1-0.8,0.2-2.7,0.2-5.5v-1.2h-8.6c0,3.4-0.1,5.3-0.2,5.7c-0.5,2.3-1.7,3.4-3.8,3.4
		c-2.9,0-4.3-2.2-4.3-6.5V170h16.9v-9.7c0-5-0.8-8.6-2.6-11C-175,146.1-178.4,144.5-182.6,144.5L-182.6,144.5z M-178.5,163h-8.5
		v-4.3c0-4.3,1.4-6.5,4.2-6.5c2.8,0,4.2,2.2,4.2,6.5V163z M-178.5,163"/>
</g>
<g>
	<path class="st0" d="M128.6,3.6C59.9,3.6,4.1,59.3,4.1,128c0,68.7,55.7,124.4,124.4,124.4c68.7,0,124.4-55.7,124.4-124.4
		C253,59.3,197.3,3.6,128.6,3.6L128.6,3.6z M160.7,128l-20.4,0l0,74.7h-28V128H93.7v-25.7l18.7,0l0-15.1c0-21,5.7-33.8,30.4-33.8
		h20.6v25.7h-12.9c-9.6,0-10.1,3.6-10.1,10.3l0,12.9h23.1L160.7,128z M160.7,128"/>
</g>
<g>
	<g>
		<defs>
			<rect id="SVGID_1_" x="-650.9" y="-1.7" width="254.5" height="264.3"/>
		</defs>
		<clipPath id="SVGID_2_">
			<use xlink:href="#SVGID_1_"  style="overflow:visible;"/>
		</clipPath>
		<path class="st1" d="M-486.1,34.4c-37.6-37.6-98.9-37.6-136.5,0c-37.6,37.6-37.6,98.9,0,136.5c33.5,33.5,85.7,37.1,123.3,10.9
			c0.8,3.8,2.6,7.3,5.5,10.2l54.8,54.8c8,8,20.9,8,28.8,0c8-8,8-20.9,0-28.8l-54.8-54.8c-2.9-2.9-6.5-4.7-10.2-5.5
			C-449,120.1-452.6,67.9-486.1,34.4L-486.1,34.4z M-503.4,153.6c-28.1,28.1-73.8,28.1-101.9,0c-28.1-28.1-28.1-73.8,0-101.9
			c28.1-28.1,73.8-28.1,101.9,0C-475.3,79.8-475.3,125.5-503.4,153.6L-503.4,153.6z M-503.4,153.6"/>
	</g>
</g>
<rect x="-328.1" y="-286.8" width="256.9" height="256.9"/>
<g>
	<path class="st2" d="M-208.8-224h20.1l47.6,131.2h-19.5l-13.7-39.3h-51.5L-240-92.7h-18.2L-208.8-224z M-179.3-146.5l-20.2-58
		l-21,58H-179.3z"/>
</g>
<rect x="-44.2" y="-286.8" width="256.9" height="256.9"/>
<g>
	<path class="st2" d="M23.3-224h20.1L91-92.7H71.6L57.9-132H6.4L-7.8-92.7h-18.2L23.3-224z M52.8-146.5l-20.2-58l-21,58H52.8z"/>
	<path class="st2" d="M101.3-131.9v-15h38.9v-39.2h15.3v39.2h38.9v15h-38.9v39.1h-15.3v-39.1H101.3z"/>
</g>
<rect x="240.9" y="-286.8" width="256.9" height="256.9"/>
<g>
	<path class="st2" d="M333-224h20.1l47.6,131.2h-19.5L367.5-132H316l-14.2,39.3h-18.2L333-224z M362.5-146.5l-20.2-58l-21,58H362.5z
		"/>
	<path class="st2" d="M410.4-152h44.8v16.5h-44.8V-152z"/>
</g>
</svg>
